<?xml version="1.0" encoding="UTF-8"?>
<svg xmlns="http://www.w3.org/2000/svg" viewBox="0 0 503.9941405577 500">
  <defs>
    <style>
      .cls-1 {
        fill: #00ff00;
      }

      .cls-2 {
        fill: #000000;
      }
    </style>
  </defs>
  <g id="Layer_2" data-name="Layer 2">
    <rect class="cls-2" x="3.994140625" width="499.9999999327" height="500"/>
  </g>
  <g id="Layer_1" data-name="Layer 1">
    <g>
      <path class="cls-1" d="m8.9365234375,90.6069335938h34.0703125c19.548828125,0,36.3046875,8.123046875,36.3046875,33.7431640625,0,24.8388671875-17.314453125,35.6181640625-36.3046875,35.6181640625h-10.0532226562v32.1811523438H8.9365234375v-101.5424804688Zm32.9536132812,48.115234375c9.4946289062,0,13.9633789062-5.3110351562,13.9633789062-14.3720703125,0-9.060546875-5.0268554688-12.4975585938-13.9633789062-12.4975585938h-8.9365234375v26.8696289062h8.9365234375Z"/>
      <path class="cls-1" d="m110.30859375,159.9682617188v-55.6142578125h-20.9448242188v-20.9331054688h44.9619140625v77.484375c0,9.0610351562,5.5849609375,11.560546875,10.4721679688,11.560546875,2.9326171875,0,6.0043945312-.625,10.0537109375-2.1870117188l5.1665039062,19.68359375c-7.5400390625,2.4995117188-12.5668945312,4.0615234375-21.6430664062,4.0615234375-18.5712890625,0-28.06640625-13.7470703125-28.06640625-34.0556640625Z"/>
      <path class="cls-1" d="m175.0961914062,169.9663085938c0-17.4965820312,12.2880859375-26.5571289062,44.1240234375-28.4321289062-.8374023438-5.6240234375-5.5849609375-8.123046875-13.4047851562-8.123046875-5.8642578125,0-11.7290039062,2.1870117188-20.1069335938,6.5610351562l-8.3779296875-17.4965820312c10.6118164062-6.5615234375,21.5034179688-10.310546875,33.232421875-10.310546875,19.828125,0,32.6743164062,10.935546875,32.6743164062,36.5551757812v43.4291992188h-19.548828125l-1.6752929688-8.1235351562h-.55859375c-6.8422851562,5.6240234375-15.0805664062,9.998046875-23.7377929688,9.998046875-14.521484375,0-22.6206054688-11.2475585938-22.6206054688-24.0576171875Zm44.1240234375-2.4995117188v-9.998046875c-17.03515625.625-21.2241210938,4.9990234375-21.2241210938,10.310546875,0,3.5927734375,2.513671875,5.6240234375,7.5400390625,5.6240234375,5.5854492188,0,9.9140625-2.8120117188,13.6840820312-5.9365234375Z"/>
      <path class="cls-1" d="m259.9921875,153.0947265625c0-25.9326171875,19.2685546875-40.9296875,40.912109375-40.9296875,10.8916015625,0,20.5263671875,4.0615234375,26.390625,10.310546875l-10.8916015625,16.5590820312c-5.166015625-3.9052734375-9.634765625-5.3115234375-14.1025390625-5.3115234375-10.47265625,0-17.7333984375,7.4985351562-17.7333984375,19.3715820312,0,11.8725585938,7.12109375,19.37109375,16.8955078125,19.37109375,6.841796875,0,12.4267578125-3.2807617188,17.1748046875-6.5615234375l9.4951171875,16.8720703125c-8.6572265625,7.9672851562-19.828125,11.2475585938-29.0439453125,11.2475585938-22.0615234375,0-39.0966796875-14.9970703125-39.0966796875-40.9291992188Z"/>
      <path class="cls-1" d="m342.09375,153.0947265625c0-25.6201171875,17.873046875-40.9296875,36.583984375-40.9296875,22.0625,0,33.232421875,16.8715820312,33.232421875,37.8051757812,0,4.6865234375-.6982421875,9.373046875-.9765625,11.2475585938h-50.6875v-17.4965820312h34.0703125l-3.3505859375,4.6870117188c0-10.310546875-3.630859375-15.9345703125-11.4501953125-15.9345703125-9.2158203125,0-14.2421875,6.5610351562-14.2421875,20.62109375,0,14.6845703125,6.4228515625,20.6206054688,19.2685546875,20.6206054688,5.5859375,0,10.6123046875-1.5620117188,16.7568359375-4.6865234375l7.8193359375,15.9345703125c-8.3779296875,5.9360351562-19.26953125,9.060546875-27.9267578125,9.060546875-22.0625,0-39.09765625-14.9970703125-39.09765625-40.9291992188Z"/>
      <path class="cls-1" d="m8.9365234375,270.8818359375h24.0170898438v25.3076171875l-1.396484375,13.7470703125h.55859375c4.4682617188-4.9990234375,11.7290039062-10.310546875,22.0620117188-10.310546875,15.359375,0,22.0620117188,12.4970703125,22.0620117188,31.869140625v48.115234375h-24.0170898438v-44.6787109375c0-8.748046875-1.9545898438-12.498046875-8.0986328125-12.498046875-4.4682617188,0-7.5400390625,2.1875-11.1704101562,5.9365234375v51.240234375H8.9365234375v-108.728515625Z"/>
      <path class="cls-1" d="m89.6430664062,340.5556640625c0-25.9326171875,17.59375-40.9296875,36.025390625-40.9296875,18.4311523438,0,36.025390625,14.9970703125,36.025390625,40.9296875s-17.5942382812,40.9296875-36.025390625,40.9296875c-18.431640625,0-36.025390625-14.9970703125-36.025390625-40.9296875Zm47.4750976562,0c0-11.873046875-3.3510742188-19.37109375-11.4497070312-19.37109375-8.0991210938,0-11.4501953125,7.498046875-11.4501953125,19.37109375,0,11.8720703125,3.3510742188,19.37109375,11.4501953125,19.37109375,8.0986328125,0,11.4497070312-7.4990234375,11.4497070312-19.37109375Z"/>
      <path class="cls-1" d="m194.0864257812,347.4287109375v-55.61328125h-20.9448242188v-20.93359375h44.9619140625v77.484375c0,9.060546875,5.5849609375,11.560546875,10.4721679688,11.560546875,2.9326171875,0,6.0043945312-.625,10.0537109375-2.1875l5.1665039062,19.68359375c-7.5400390625,2.5-12.5668945312,4.0625-21.6430664062,4.0625-18.5712890625,0-28.06640625-13.748046875-28.06640625-34.056640625Z"/>
      <path class="cls-1" d="m257.19921875,340.5556640625c0-25.6201171875,14.521484375-40.9296875,29.18359375-40.9296875,7.400390625,0,12.1474609375,2.8125,16.3369140625,7.8115234375h.55859375l-1.1171875-11.248046875v-25.3076171875h24.0166015625v108.728515625h-19.548828125l-1.6748046875-7.1865234375h-.55859375c-4.8876953125,5.3115234375-11.7294921875,9.0615234375-18.0126953125,9.0615234375-17.7333984375,0-29.18359375-15.6220703125-29.18359375-40.9296875Zm44.9619140625,13.4345703125v-28.744140625c-2.79296875-2.8125-5.865234375-3.7490234375-9.2158203125-3.7490234375-5.8642578125,0-11.1708984375,4.9990234375-11.1708984375,18.74609375,0,14.0595703125,4.0498046875,19.37109375,10.8916015625,19.37109375,3.9091796875,0,6.841796875-1.25,9.4951171875-5.6240234375Z"/>
      <path class="cls-1" d="m342.09375,340.5556640625c0-25.6201171875,17.873046875-40.9296875,36.583984375-40.9296875,22.0625,0,33.232421875,16.8720703125,33.232421875,37.8046875,0,4.6865234375-.6982421875,9.3740234375-.9765625,11.248046875h-50.6875v-17.49609375h34.0703125l-3.3505859375,4.6865234375c0-10.310546875-3.630859375-15.9345703125-11.4501953125-15.9345703125-9.2158203125,0-14.2421875,6.5615234375-14.2421875,20.62109375,0,14.6845703125,6.4228515625,20.62109375,19.2685546875,20.62109375,5.5859375,0,10.6123046875-1.5625,16.7568359375-4.6865234375l7.8193359375,15.93359375c-8.3779296875,5.9365234375-19.26953125,9.0615234375-27.9267578125,9.0615234375-22.0625,0-39.09765625-14.9970703125-39.09765625-40.9296875Z"/>
      <path class="cls-1" d="m433.412109375,301.5009765625h19.6884765625l1.8154296875,16.55859375h.55859375c6.7021484375-12.8095703125,16.755859375-18.43359375,27.228515625-18.43359375,6.4228515625,0,9.35546875,1.25,13.2646484375,3.125l-4.7470703125,22.4951171875c-4.189453125-1.40625-7.12109375-2.1875-12.1484375-2.1875-7.958984375,0-16.4765625,4.6865234375-21.642578125,17.8095703125v38.7421875h-24.017578125v-78.109375Z"/>
    </g>
  </g>
</svg>